<?xml version="1.0" encoding="utf-8"?>
<!-- Generator: Adobe Illustrator 23.1.0, SVG Export Plug-In . SVG Version: 6.00 Build 0)  -->
<svg version="1.1" id="Layer_1" xmlns="http://www.w3.org/2000/svg" xmlns:xlink="http://www.w3.org/1999/xlink" x="0px" y="0px"
	 viewBox="0 0 2604.12 2662.83" style="enable-background:new 0 0 2604.12 2662.83;" xml:space="preserve">
<style type="text/css">
	.st0{fill:#FFFFFF;stroke:#000000;stroke-miterlimit:10;}
	.st1{clip-path:url(#SVGID_5_);}
	.st2{clip-path:url(#SVGID_10_);}
	.st3{fill:#64BC49;}
	.st4{fill:#479945;}
	.st5{fill:#0F8241;}
	.st6{fill:#F04D23;}
	.st7{fill:#CC3C27;}
	.st8{fill:#B53A25;}
	.st9{fill:none;stroke:#335273;stroke-width:2;stroke-miterlimit:10;}
	.st10{fill:none;stroke:#335273;stroke-width:3;stroke-linecap:round;stroke-linejoin:round;stroke-miterlimit:10;}
	.st11{fill:#FFFFFF;stroke:#FFFFFF;stroke-width:2.5;stroke-linecap:round;stroke-linejoin:round;stroke-miterlimit:10;}
	.st12{fill:none;stroke:#335273;stroke-width:30;stroke-miterlimit:10;}
	.st13{fill:none;stroke:#335273;stroke-width:30;stroke-linecap:round;stroke-linejoin:round;stroke-miterlimit:10;}
</style>
<circle class="st12" cx="1302.06" cy="1351.46" r="1159.51"/>
<g>
	<path class="st13" d="M1772.22,1326.5l-198.57-90.36l-105.91-279.92c-10.29-26.86-36.21-43.44-63.42-43.44l-136.09-0.34
		c-0.68,0-21.25,2.3-30.6,6.97L965.69,1055.5c-10.62,5.35-19.63,13.34-26.27,23.29l-136.09,203.84
		c-20.57,31.2-12.33,73.44,18.87,94.35c11.65,7.57,24.91,11.22,37.91,11.22c21.93,0,43.44-10.62,56.44-30.18l126.15-188.97
		l155.05-77.69c-2.85,14.33-74.1,311.05-74.69,317.81l-56.47,361.3l-192.88,257.31c-22.61,29.84-16.58,72.34,13.6,94.95
		c12.33,9.27,26.61,13.6,40.55,13.6c20.91,0,41.14-9.27,54.4-27.2l197.89-263.68c9.69-9.27,17-20.57,19.98-35.53l49.08-202.26
		l168.71,168.77l126.83,317.07c10.96,26.95,36.21,42.84,63.5,42.84c8.24,0,28.72-3.98,36.97-7.29
		c34.94-14.03,40.05-50.77,26.11-85.96l-136.18-340.02c-1.96-5.7-4.93-10.62-8.59-15.3l-156.41-238.1l48.45-238.44l37.49,98.95
		c6.37,17,18.95,30.6,35.53,38.25l224.16,101.92c9.35,4.33,18.96,5.95,28.22,5.95c25.93,0,50.49-14.62,62.14-39.87
		C1821.35,1382.26,1806.48,1342.05,1772.22,1326.5z"/>
	
		<ellipse transform="matrix(0.9827 -0.1852 0.1852 0.9827 -111.2257 274.6535)" class="st13" cx="1414.27" cy="732.58" rx="142.13" ry="142.13"/>
</g>
</svg>
