<?xml version="1.0" encoding="utf-8"?>
<!-- Generator: Adobe Illustrator 23.1.0, SVG Export Plug-In . SVG Version: 6.00 Build 0)  -->
<svg version="1.1" id="Layer_1" xmlns="http://www.w3.org/2000/svg" xmlns:xlink="http://www.w3.org/1999/xlink" x="0px" y="0px"
	 viewBox="0 0 2604.12 2662.83" style="enable-background:new 0 0 2604.12 2662.83;" xml:space="preserve">
<style type="text/css">
	.st0{fill:#FFFFFF;stroke:#000000;stroke-miterlimit:10;}
	.st1{clip-path:url(#SVGID_5_);}
	.st2{clip-path:url(#SVGID_10_);}
	.st3{fill:#64BC49;}
	.st4{fill:#479945;}
	.st5{fill:#0F8241;}
	.st6{fill:#F04D23;}
	.st7{fill:#CC3C27;}
	.st8{fill:#B53A25;}
	.st9{fill:none;stroke:#335273;stroke-width:2;stroke-miterlimit:10;}
	.st10{fill:none;stroke:#335273;stroke-width:3;stroke-linecap:round;stroke-linejoin:round;stroke-miterlimit:10;}
	.st11{fill:#FFFFFF;stroke:#FFFFFF;stroke-width:2.5;stroke-linecap:round;stroke-linejoin:round;stroke-miterlimit:10;}
	.st12{fill:none;stroke:#335273;stroke-width:30;stroke-miterlimit:10;}
	.st13{fill:none;stroke:#335273;stroke-width:30;stroke-linecap:round;stroke-linejoin:round;stroke-miterlimit:10;}
</style>
<g>
	<g>
		<path class="st13" d="M827.12,966.12c80.91,0,146.49-65.55,146.49-146.47c0-80.87-65.58-146.47-146.49-146.47
			c-80.89,0-146.47,65.6-146.47,146.47C680.65,900.57,746.23,966.12,827.12,966.12z"/>
	</g>
	<path class="st13" d="M796.18,965.87l-6.24,24.93c-3.57,14.26-16.39,24.26-31.09,24.26H716.1l0,0
		c-86.78,0-157.13,70.35-157.13,157.13v184.08v57.57v86.84c0,37.96,24.39,68.73,61.57,68.73c37.19,0,67.34-30.78,67.34-68.73
		v-145.31v-87.9"/>
	<path class="st13" d="M982.23,1544.96c-9.88-11.96-15.84-27.42-15.84-44.29v-145.31v-87.9"/>
	<path class="st13" d="M858.17,966.2l6.16,24.59c3.57,14.26,16.39,24.26,31.09,24.26h42.75l0,0c80.6,0,147.03,60.69,156.08,138.87"
		/>
	<path class="st13" d="M966.4,1210.7v340.73c0,0.03-0.01,0.06-0.01,0.08v230.8v83.12v93.81c0,41-26.35,74.25-66.51,74.25
		c-40.18,0-72.75-33.25-72.75-74.25"/>
	<path class="st13" d="M687.87,1210.7v340.73c0,0.03,0,0.06,0,0.08v230.8v83.12v93.81c0,41,26.35,74.25,66.51,74.25
		c40.18,0,72.75-33.25,72.75-74.25v-345.46"/>
</g>
<g>
	<g>
		<path class="st13" d="M1813.59,966.12c-80.91,0-146.49-65.55-146.49-146.47c0-80.87,65.58-146.47,146.49-146.47
			c80.89,0,146.47,65.6,146.47,146.47C1960.06,900.57,1894.48,966.12,1813.59,966.12z"/>
	</g>
	<path class="st13" d="M1844.53,965.87l6.24,24.93c3.57,14.26,16.39,24.26,31.09,24.26h42.75l0,0
		c86.78,0,157.13,70.35,157.13,157.13v184.08v57.57v86.84c0,37.96-24.39,68.73-61.57,68.73c-37.19,0-67.34-30.78-67.34-68.73
		v-145.31v-87.9"/>
	<path class="st13" d="M1658.48,1544.96c9.88-11.96,15.84-27.42,15.84-44.29v-145.31v-87.9"/>
	<path class="st13" d="M1782.54,966.2l-6.16,24.59c-3.57,14.26-16.39,24.26-31.09,24.26h-42.75l0,0
		c-80.6,0-147.03,60.69-156.08,138.87"/>
	<path class="st13" d="M1674.31,1210.7v340.73c0,0.03,0.01,0.06,0.01,0.08v230.8v83.12v93.81c0,41,26.35,74.25,66.51,74.25
		c40.18,0,72.75-33.25,72.75-74.25"/>
	<path class="st13" d="M1952.84,1210.7v340.73c0,0.03,0,0.06,0,0.08v230.8v83.12v93.81c0,41-26.35,74.25-66.51,74.25
		c-40.18,0-72.75-33.25-72.75-74.25v-345.46"/>
</g>
<g>
	<g>
		<path class="st13" d="M1320.28,1047.93c80.91,0,146.49-65.55,146.49-146.47c0-80.87-65.58-146.47-146.49-146.47
			c-80.89,0-146.47,65.6-146.47,146.47C1173.81,982.37,1239.39,1047.93,1320.28,1047.93z"/>
	</g>
	<path class="st13" d="M1108.92,1574.84c-9.19,36.83-45.9,59.39-81.98,50.38c-36.07-9-52.29-44.77-43.09-81.6l21.03-84.26
		l13.94-55.85c0,0,32.62-134.16,44.57-178.6c12.6-46.86,36.94-120.2,145.87-128.05c26.66-1.92,42.75,0,42.75,0
		c14.7,0,27.52-10,31.09-24.26l6.24-24.93"/>
	<path class="st13" d="M1459.56,1825.45v38.66v83.12v93.81c0,41-26.35,74.25-66.51,74.25c-40.18,0-72.75-33.25-72.75-74.25"/>
	<path class="st13" d="M1531.68,1574.84c9.19,36.83,45.89,59.39,81.98,50.38c36.07-9,52.29-44.77,43.09-81.6l-21.03-84.26
		l-13.94-55.85c0,0-32.62-134.16-44.57-178.6c-12.6-46.86-36.94-120.2-145.88-128.05c-26.66-1.92-42.75,0-42.75,0
		c-14.7,0-27.52-10-31.09-24.26l-6.24-24.93"/>
	<path class="st13" d="M1181.04,1825.45v38.66v83.12v93.81c0,41,26.35,74.25,66.51,74.25c40.18,0,72.75-33.25,72.75-74.25v-215.59"
		/>
	<polyline class="st13" points="1459.56,1292.51 1595.22,1825.46 1045.38,1825.46 1181.04,1292.51 	"/>
</g>
<circle class="st12" cx="1304.91" cy="1351.46" r="1159.51"/>
</svg>
